<?xml version="1.0" encoding="UTF-8" standalone="no"?>
<!-- Created with Inkscape (http://www.inkscape.org/) -->

<svg
   width="793.70081"
   height="1122.5197"
   viewBox="0 0 210 297"
   version="1.1"
   id="svg5"
   inkscape:version="1.1.1 (1:1.1+202109281949+c3084ef5ed)"
   sodipodi:docname="wheel_wizard.svg"
   inkscape:export-filename="/home/nootaku/Nextcloud/Portfolio/Logos/wheel_wizard/wheel_wizard.png"
   inkscape:export-xdpi="96"
   inkscape:export-ydpi="96"
   xmlns:inkscape="http://www.inkscape.org/namespaces/inkscape"
   xmlns:sodipodi="http://sodipodi.sourceforge.net/DTD/sodipodi-0.dtd"
   xmlns="http://www.w3.org/2000/svg"
   xmlns:svg="http://www.w3.org/2000/svg">
  <sodipodi:namedview
     id="namedview7"
     pagecolor="#505050"
     bordercolor="#eeeeee"
     borderopacity="1"
     inkscape:pageshadow="0"
     inkscape:pageopacity="0"
     inkscape:pagecheckerboard="0"
     inkscape:document-units="mm"
     showgrid="false"
     showborder="false"
     units="px"
     inkscape:zoom="0.83544464"
     inkscape:cx="135.25732"
     inkscape:cy="332.15845"
     inkscape:window-width="2560"
     inkscape:window-height="1018"
     inkscape:window-x="1080"
     inkscape:window-y="395"
     inkscape:window-maximized="1"
     inkscape:current-layer="layer1">
    <inkscape:grid
       type="xygrid"
       id="grid1829" />
  </sodipodi:namedview>
  <defs
     id="defs2" />
  <g
     inkscape:label="Layer 1"
     inkscape:groupmode="layer"
     id="layer1">
    <path
       id="path3592"
       style="fill:#cccccc;stroke:none;stroke-width:0.791043px;stroke-linecap:butt;stroke-linejoin:miter;stroke-opacity:1"
       d="m 38.242689,102.64369 c -11.14309,2.15396 -25.90012,5.00412 -25.90012,5.00412 70.12105,8.48828 -93.921599,48.42358 46.768959,50.78057 130.977772,2.19429 14.77509,40.7396 14.77509,40.7396 l 33.111452,3.63542 c 0,0 11.65332,-2.74265 21.14644,-4.97697 l -29.074831,-3.19197 c 0,0 116.204411,-38.54557 -14.77333,-40.73985 -140.690569,-2.357 23.352091,-42.29229 -46.769,-50.78058 0,0 0.79993,-0.15499 0.86236,-0.16705 l -0.0593,0.009 z" />
    <g
       id="g11190"
       transform="translate(60.949394,6.3593016)"
       style="fill:#9ade00">
      <ellipse
         style="fill:#9ade00;stroke-width:0.275518;stroke-opacity:0.407219"
         id="path848"
         cx="1.3303875"
         cy="79.190582"
         rx="10.175746"
         ry="15.587518" />
      <path
         id="rect1052"
         style="fill:#9ade00;stroke-width:1.36091;stroke-opacity:0.407219"
         d="M 283.42969,-24.035156 5.2578125,210.73047 100.32031,278.87109 356.56055,62.615234 Z"
         transform="scale(0.26458333)" />
      <path
         id="rect1054"
         style="fill:#9ade00;stroke-width:1.46589;stroke-opacity:0.407219"
         d="M 87.570312,141.875 5.2578125,210.73047 301.62891,424.86328 338.1582,374.30273 323.03125,312.00195 Z"
         transform="scale(0.26458333)" />
      <rect
         style="fill:#9ade00;stroke-width:0.324534;stroke-opacity:0.407219"
         id="rect1056"
         width="26.702164"
         height="42.396389"
         x="39.875874"
         y="34.039814" />
      <ellipse
         style="fill:#9ade00;stroke-width:0.289041;stroke-opacity:0.407219"
         id="ellipse10656"
         cx="22.621384"
         cy="95.290825"
         rx="10.962658"
         ry="15.923825" />
      <ellipse
         style="fill:#9ade00;stroke-width:0.300041;stroke-opacity:0.407219"
         id="ellipse10658"
         cx="45.947968"
         cy="112.92937"
         rx="11.200703"
         ry="16.794212" />
      <ellipse
         style="fill:#9ade00;stroke-width:0.319023;stroke-opacity:0.407219"
         id="ellipse10660"
         cx="70.449944"
         cy="129.5981"
         rx="11.495887"
         ry="18.498831" />
    </g>
    <g
       id="g11167"
       transform="translate(65.261537,5.6953864)"
       style="fill:#ffc022">
      <path
         id="rect10789"
         style="fill:#ffc022;stroke:none;stroke-width:1.14962;stroke-linejoin:round;stroke-miterlimit:4;stroke-dasharray:none;stroke-dashoffset:0;stroke-opacity:1;paint-order:normal"
         d="m 26.522591,141.12452 -12.18719,23.40152 H 41.94959 L 29.762235,141.12452 Z" />
      <path
         id="path11030"
         style="fill:#ffc022;stroke:none;stroke-width:1.20935;stroke-linejoin:round;stroke-miterlimit:4;stroke-dasharray:none;stroke-dashoffset:0;stroke-opacity:1;paint-order:normal"
         d="m 14.335401,164.52604 a 13.807045,5.505118 0 0 0 13.807273,5.50507 13.807045,5.505118 0 0 0 13.806916,-5.50507 z" />
    </g>
    <g
       id="g11181"
       transform="translate(65.62047,5.1520771)"
       style="fill:#ffc022">
      <path
         id="path11006"
         style="fill:#ffc022;stroke:none;stroke-width:1.01484;stroke-linejoin:round;stroke-miterlimit:4;stroke-dasharray:none;stroke-dashoffset:0;stroke-opacity:1;paint-order:normal"
         d="m -18.216871,113.27935 -10.644673,20.87859 H -4.7424477 L -15.387265,113.27935 Z" />
      <path
         id="path11159"
         style="fill:#ffc022;stroke:none;stroke-width:1.02726;stroke-linejoin:round;stroke-miterlimit:4;stroke-dasharray:none;stroke-dashoffset:0;stroke-opacity:1;paint-order:normal"
         d="m -28.861544,134.15794 a 12.059505,4.5476812 0 0 0 12.059704,4.54764 12.059505,4.5476812 0 0 0 12.0593923,-4.54764 z" />
    </g>
  </g>
</svg>
